<svg width="132" height="37" viewBox="0 0 132 37" fill="none" xmlns="http://www.w3.org/2000/svg">
<path d="M117.109 6.97313C116.922 6.58686 116.548 6.45811 116.237 6.58686C115.614 5.2993 114.306 5.10617 113.185 6.13622C112.126 7.10189 111.254 8.84009 111.378 10.3208C111.503 12.1234 113.558 12.9603 114.929 11.9302C115.614 11.4152 116.175 10.6427 116.611 9.74138C116.922 10.4495 117.234 11.2221 117.545 11.9302C117.981 12.8959 119.351 12.059 118.915 11.0933C118.293 9.74138 117.732 8.32506 117.109 6.97313ZM114.493 9.99889C114.119 10.5139 113.122 11.2865 112.873 10.2564C112.686 9.48387 113.371 8.38944 113.807 7.87442C113.994 7.61691 114.306 7.29502 114.555 7.16627C114.617 7.16627 114.68 7.16627 114.68 7.16627C114.742 7.23064 114.804 7.42378 114.866 7.55253C114.991 7.87442 115.24 8.06756 115.489 8.13193C115.302 8.77571 114.866 9.48387 114.493 9.99889Z" fill="#4F2A19"/>
<path d="M94.6216 6.97313C94.4347 6.58686 94.0609 6.45811 93.7495 6.58686C93.1265 5.2993 91.8184 5.10617 90.6972 6.13622C89.6382 7.10189 88.7661 8.84009 88.8907 10.3208C89.0153 12.1234 91.0709 12.9603 92.4413 11.9302C93.1265 11.4152 93.6872 10.6427 94.1232 9.74138C94.4347 10.4495 94.7461 11.2221 95.0576 11.9302C95.4936 12.8959 96.8641 12.059 96.428 11.0933C95.7428 9.74138 95.1822 8.32506 94.6216 6.97313ZM92.0053 9.99889C91.6315 10.5139 90.6349 11.2865 90.448 10.2564C90.2611 9.48387 90.9463 8.38944 91.3201 7.87442C91.507 7.61691 91.8184 7.29502 92.0676 7.16627C92.1299 7.16627 92.1922 7.16627 92.1922 7.16627C92.2545 7.23064 92.3167 7.42378 92.379 7.55253C92.5036 7.87442 92.7528 8.06756 93.002 8.13193C92.8151 8.77571 92.379 9.48387 92.0053 9.99889Z" fill="#4F2A19"/>
<path d="M43.4175 6.97313C43.2306 6.58686 42.8569 6.45811 42.5454 6.58686C41.9225 5.2993 40.6144 5.10617 39.4931 6.13622C38.4342 7.10189 37.5621 8.84009 37.6867 10.3208C37.8112 12.1234 39.8669 12.9603 41.2373 11.9302C41.9225 11.4152 42.4832 10.6427 42.9192 9.74138C43.2307 10.4495 43.5421 11.2221 43.8536 11.9302C44.2896 12.8959 45.66 12.059 45.224 11.0933C44.6011 9.74138 43.9781 8.32506 43.4175 6.97313ZM40.8013 9.99889C40.4275 10.5139 39.4308 11.2865 39.1817 10.2564C38.9948 9.48387 39.68 8.38944 40.1161 7.87442C40.3029 7.61691 40.6144 7.29502 40.8636 7.16627C40.9258 7.16627 40.9881 7.16627 40.9881 7.16627C41.0504 7.23064 41.1127 7.42378 41.175 7.55253C41.2996 7.87442 41.5488 8.06756 41.7979 8.13193C41.6111 8.77571 41.175 9.48387 40.8013 9.99889Z" fill="#4F2A19"/>
<path d="M67.2754 6.97313C67.0885 6.58686 66.7147 6.45811 66.4033 6.58686C65.7804 5.2993 64.4722 5.10617 63.351 6.13622C62.292 7.10189 61.4199 8.84009 61.5445 10.3208C61.6691 12.1234 63.7247 12.9603 65.0951 11.9302C65.7803 11.4152 66.341 10.6427 66.777 9.74138C67.0885 10.4495 67.3999 11.2221 67.7114 11.9302C68.1474 12.8959 69.5179 12.059 69.0818 11.0933C68.4589 9.74138 67.8983 8.32506 67.2754 6.97313ZM64.7214 9.99889C64.3476 10.5139 63.351 11.2865 63.1641 10.2564C62.9772 9.48387 63.6624 8.38944 64.0362 7.87442C64.2231 7.61691 64.5345 7.29502 64.7837 7.16627C64.846 7.16627 64.9083 7.16627 64.9083 7.16627C64.9706 7.23064 65.0328 7.42378 65.0951 7.55253C65.2197 7.87442 65.4689 8.06756 65.7181 8.13193C65.4689 8.77571 65.0951 9.48387 64.7214 9.99889Z" fill="#4F2A19"/>
<path d="M27.2839 6.90876C27.3462 6.65125 27.3462 6.45812 27.3462 6.2006C27.4085 5.29931 25.9135 5.0418 25.7889 6.00747C25.7889 6.07185 25.7889 6.13623 25.7889 6.2006C25.7889 6.26498 25.7889 6.26498 25.7889 6.32936C25.7889 6.32936 25.7889 6.39374 25.7889 6.45812C25.7266 7.23065 25.4151 8.06756 25.1037 8.8401C24.8545 9.48388 24.3562 10.7071 23.6087 10.9002C22.9858 11.0933 22.7989 9.03323 22.7989 8.77572C22.7366 8.00319 22.8612 7.1019 22.9235 6.45812C23.1103 5.42807 21.553 4.97742 21.3662 6.00747C21.0547 7.93881 20.6809 12.3165 23.4841 12.5096C24.8545 12.6384 25.7266 11.2221 26.2872 10.1277C26.2872 10.0633 26.3495 9.9989 26.3495 9.9989C26.661 10.8358 27.1593 11.6727 27.7822 12.2521C28.5297 13.0247 29.651 11.8015 28.9035 11.0933C27.9691 10.1277 27.2839 8.32507 27.2839 6.90876Z" fill="#4F2A19"/>
<path d="M11.1503 6.2006C11.088 7.16627 10.8388 8.32508 10.4651 9.35512C9.03234 9.29074 8.22255 7.48816 8.22255 6.2006C8.22255 5.10618 6.60295 5.10618 6.60295 6.2006C6.60295 8.19632 7.84879 10.5139 9.77985 10.9646C8.97005 12.5096 7.84879 13.7972 6.35379 14.6341C5.41941 15.1491 6.2292 16.5654 7.16358 16.0504C10.5896 14.1835 12.5207 10.0633 12.7076 6.13623C12.7699 5.10618 11.2126 5.10618 11.1503 6.2006Z" fill="#4F2A19"/>
<path d="M6.10462 11.2221C5.41941 10.2564 4.79649 9.29073 4.11128 8.32506C4.6719 7.87441 5.10795 7.29501 5.35712 6.65123C5.79316 5.68556 4.42273 4.84865 3.98669 5.81432C3.67523 6.52247 3.23918 7.10187 2.49168 7.29501C2.18022 7.42376 1.99335 7.42377 1.6196 7.35939C1.6196 6.90874 1.6196 6.52248 1.6196 6.07183C1.6196 4.97741 0 4.97741 0 6.07183C0 7.87441 0 9.67699 0 11.544C0 12.6384 1.6196 12.6384 1.6196 11.544C1.6196 10.707 1.6196 9.87013 1.6196 9.03321C1.93106 9.09759 2.30481 9.03321 2.61627 8.96884C3.30148 9.99888 3.98669 10.9645 4.6719 11.9946C5.29482 12.9603 6.66525 12.1234 6.10462 11.2221Z" fill="#4F2A19"/>
<path d="M108.326 8.32507C108.886 7.87442 109.322 7.29501 109.572 6.65124C110.008 5.68557 108.637 4.84866 108.201 5.81433C107.89 6.52248 107.454 7.10188 106.706 7.29501C106.457 7.35939 106.27 7.42377 105.959 7.42377C105.959 6.97313 105.959 6.58686 105.959 6.13622C105.959 5.04179 104.339 5.04179 104.339 6.13622C104.339 7.9388 104.339 9.74138 104.339 11.6083C104.339 12.7028 105.959 12.7028 105.959 11.6083C105.959 10.7714 105.959 9.93451 105.959 9.0976C106.27 9.0976 106.519 9.0976 106.831 9.03322C107.516 10.0633 108.201 11.0289 108.886 12.059C109.447 12.8959 110.88 12.1234 110.257 11.2221C109.634 10.2564 108.949 9.29073 108.326 8.32507Z" fill="#4F2A19"/>
<path d="M36.0671 7.42379C36.0671 7.03752 36.0671 6.65125 36.0671 6.26499C36.0671 5.17056 34.4475 5.17056 34.4475 6.26499C34.4475 6.65125 34.4475 7.1019 34.4475 7.48817C33.5131 7.55255 32.5787 7.61692 31.6443 7.61692C31.6443 7.16628 31.6443 6.71563 31.6443 6.26499C31.6443 5.17056 30.0247 5.17056 30.0247 6.26499C30.0247 8.06757 30.0247 9.80577 30.0247 11.6084C30.0247 12.7028 31.6443 12.7028 31.6443 11.6084C31.6443 10.8358 31.6443 10.0633 31.6443 9.29075C32.5787 9.29075 33.5131 9.22637 34.4475 9.16199C34.4475 9.9989 34.4475 10.7714 34.4475 11.6084C34.4475 12.7028 36.0671 12.7028 36.0671 11.6084C36.0671 10.7714 36.0671 9.93453 36.0671 9.09762C37.0014 8.90448 37.0014 7.42379 36.0671 7.42379Z" fill="#4F2A19"/>
<path d="M60.0495 7.42379C60.0495 7.03752 60.0495 6.65125 60.0495 6.26499C60.0495 5.17056 58.4299 5.17056 58.4299 6.26499C58.4299 6.65125 58.4299 7.1019 58.4299 7.48817C57.4955 7.55255 56.5611 7.61692 55.6268 7.61692C55.6268 7.16628 55.6268 6.71563 55.6268 6.26499C55.6268 5.17056 54.0072 5.17056 54.0072 6.26499C54.0072 8.06757 54.0072 9.80577 54.0072 11.6084C54.0072 12.7028 55.6268 12.7028 55.6268 11.6084C55.6268 10.8358 55.6268 10.0633 55.6268 9.29075C56.5611 9.29075 57.4955 9.22637 58.4299 9.16199C58.4299 9.9989 58.4299 10.7714 58.4299 11.6084C58.4299 12.7028 60.0495 12.7028 60.0495 11.6084C60.0495 10.7714 60.0495 9.93453 60.0495 9.09762C60.9216 8.8401 60.9216 7.48817 60.0495 7.42379Z" fill="#4F2A19"/>
<path d="M50.768 6.00747C49.709 5.10618 48.5878 5.29932 47.9026 6.13623C47.5288 5.87872 47.0305 5.87872 46.7813 6.39374C46.4075 7.29503 46.5944 8.45383 46.6567 9.35513C46.719 11.6084 46.8436 13.926 46.8436 16.1792C46.8436 17.2736 48.4632 17.2736 48.4632 16.1792C48.4632 14.5697 48.4009 13.0247 48.3386 11.4152C48.5255 11.6083 48.7123 11.7371 48.8992 11.9302C50.3942 13.089 52.3876 11.9302 52.5745 10.1277C52.7613 8.64697 51.8892 6.90876 50.768 6.00747ZM50.4565 10.7714C50.0205 10.9646 49.6467 10.5783 49.3976 10.2564C48.8992 9.67702 48.5878 8.90448 48.4009 8.13194C48.5878 8.06757 48.7746 7.87443 48.8369 7.61692C49.0861 6.84438 49.3976 6.97314 49.9582 7.55254C50.5811 8.19632 51.0171 9.16199 50.9549 10.0633C50.9549 10.3852 50.768 10.6427 50.4565 10.7714Z" fill="#4F2A19"/>
<path d="M74.9996 5.49245C73.5046 5.17056 71.262 5.10618 70.7637 7.03752C70.5145 8.06757 71.0129 8.90448 71.7604 9.54825C71.0752 9.9989 70.39 10.5139 70.0162 11.2221C69.5179 12.1234 70.8883 12.9603 71.3866 12.059C71.885 11.2221 72.9439 10.7071 73.8783 10.3852C73.9406 10.3852 73.9406 10.3852 74.0029 10.3208C74.0029 10.7714 74.0029 11.2221 74.0029 11.6727C74.0029 12.7672 75.6225 12.7672 75.6225 11.6727C75.6225 9.87015 75.6225 8.13194 75.6225 6.32936C75.6225 5.94309 75.3733 5.55683 74.9996 5.49245ZM74.0029 8.77572C73.9406 8.77572 73.9406 8.77572 73.8783 8.71134C73.2554 8.58259 72.3833 8.13194 72.3833 7.42379C72.3833 6.84438 73.3177 6.90876 74.0029 6.97314C74.0029 7.61692 74.0029 8.19632 74.0029 8.77572Z" fill="#4F2A19"/>
<path d="M86.7105 6.07184C86.6482 5.68557 86.2744 5.49243 85.963 5.49243C84.5925 5.42806 83.6582 5.94308 82.9107 7.16626C82.2254 8.38944 82.0386 10.0633 81.0419 11.0933C80.2944 11.8658 81.4156 13.0246 82.1632 12.2521C83.0975 11.3508 83.409 9.99889 83.9073 8.77571C84.1565 8.26068 84.4057 7.68128 84.8417 7.29501C84.9663 7.16626 85.1532 7.10188 85.2778 7.10188C85.4646 8.71133 85.7138 10.3208 85.9007 11.8658C86.0253 12.8959 87.5826 12.4452 87.458 11.4152C87.2088 9.61262 86.9596 7.87442 86.7105 6.07184Z" fill="#4F2A19"/>
<path d="M18.9368 6.07184C18.8745 5.68557 18.5007 5.49243 18.1893 5.49243C16.8188 5.42806 15.8845 5.94308 15.137 7.16626C14.4517 8.38944 14.2649 10.0633 13.2682 11.0933C12.5207 11.8658 13.642 13.0246 14.3895 12.2521C15.3238 11.3508 15.6353 9.99889 16.1336 8.77571C16.3828 8.26068 16.632 7.68128 17.068 7.29501C17.1926 7.16626 17.3795 7.10188 17.5041 7.10188C17.6909 8.71133 17.9401 10.3208 18.127 11.8658C18.2516 12.8959 19.8089 12.4452 19.6843 11.4152C19.4351 9.61262 19.1859 7.87442 18.9368 6.07184Z" fill="#4F2A19"/>
<path d="M101.225 6.90876C100.602 6.65124 99.8541 6.58687 99.1066 6.58687C99.1066 6.39373 99.1066 6.2006 99.1066 5.94309C100.29 5.81433 101.411 5.29931 101.785 4.01175C102.034 3.04608 101.723 1.88728 101.162 1.05037C100.664 0.342211 99.7295 -0.365948 98.8574 0.213453C98.3591 0.599721 98.2345 1.17912 98.0476 1.75852C97.7985 2.78857 97.6739 3.81862 97.6116 4.84867C97.5493 5.49244 97.5493 6.13622 97.487 6.78C97.4247 6.78 97.3001 6.84438 97.2378 6.84438C96.3034 7.10189 96.6149 8.45383 97.4247 8.45383C97.4247 9.35512 97.3624 10.1277 97.7362 10.9646C98.2345 12.1234 99.5426 12.4453 100.664 12.2521C101.723 12.059 102.72 11.1577 102.969 10.0633C103.28 8.77572 102.408 7.42378 101.225 6.90876ZM99.2935 4.20489C99.3558 3.43235 99.5426 2.72419 99.7295 1.95166C99.9787 2.27355 100.228 2.78857 100.29 3.23922C100.415 3.94737 99.8541 4.26926 99.2935 4.33364C99.2935 4.26926 99.2935 4.20489 99.2935 4.20489ZM99.0443 9.74138C98.982 9.29074 99.0443 8.77571 99.0443 8.26069C100.041 8.13194 101.038 8.26069 101.349 9.16198C101.847 10.6427 99.2312 11.544 99.0443 9.74138Z" fill="#4F2A19"/>
<path d="M119.144 27.9265C119.144 27.563 119.144 27.1994 119.144 26.8359C119.144 25.8058 117.526 25.8058 117.526 26.8359C117.526 28.5324 117.526 30.229 117.526 31.8649C117.526 32.2285 117.899 32.6526 118.335 32.6526C120.576 32.592 122.256 31.8649 122.505 29.8654C122.816 27.9871 120.389 27.6841 119.144 27.9265ZM119.144 31.1984C119.144 30.6531 119.144 30.1078 119.144 29.5625C119.642 29.4413 120.949 29.1383 120.887 29.9866C120.887 30.8349 119.58 31.1378 119.144 31.1984Z" fill="#4F2A19"/>
<path d="M123.128 26.8965C123.128 28.593 123.128 30.2896 123.128 31.9255C123.128 32.9556 124.746 32.9556 124.746 31.9255C124.746 30.229 124.746 28.5324 124.746 26.8965C124.684 25.8664 123.128 25.8664 123.128 26.8965Z" fill="#4F2A19"/>
<path d="M130.036 29.1383C130.472 28.5324 130.97 27.8659 131.406 27.26C131.966 26.4117 130.597 25.624 130.036 26.4723C129.725 26.8964 129.414 27.3812 129.041 27.8053C128.729 27.3812 128.356 26.8964 128.045 26.4723C127.422 25.6846 126.053 26.4723 126.675 27.26C127.173 27.8659 127.609 28.5324 128.107 29.1383C127.547 29.926 126.987 30.7137 126.426 31.5014C125.866 32.3496 127.236 33.1373 127.796 32.289C128.231 31.6831 128.667 31.0772 129.103 30.4713C129.539 31.0772 130.036 31.6831 130.472 32.289C131.095 33.0767 132.464 32.289 131.842 31.5014C131.281 30.7137 130.659 29.926 130.036 29.1383Z" fill="#4F2A19"/>
<path d="M68.6658 27.5629C68.4791 27.1994 68.1056 27.0782 67.7944 27.1994C67.172 25.9876 65.8649 25.8058 64.7445 26.7753C63.6864 27.6841 62.815 29.3201 62.9395 30.7137C63.064 32.4102 65.118 33.1979 66.4873 32.2285C67.172 31.7437 67.7321 31.0166 68.1678 30.1684C68.4791 30.8349 68.7903 31.562 69.1015 32.2285C69.5372 33.1373 70.9065 32.3496 70.4708 31.4408C69.7861 30.1684 69.226 28.8354 68.6658 27.5629ZM66.0516 30.4107C65.6782 30.8955 64.6823 31.6225 64.4333 30.6531C64.2466 29.926 64.9313 28.8959 65.367 28.4112C65.5537 28.1689 65.8649 27.8659 66.1139 27.7447C66.1761 27.7447 66.1761 27.7447 66.2383 27.7447C66.3006 27.8053 66.3628 27.9871 66.4251 28.1083C66.5496 28.4112 66.7985 28.593 67.0475 28.6536C66.8608 29.2595 66.4251 29.926 66.0516 30.4107Z" fill="#4F2A19"/>
<path d="M20.4282 27.5629C20.2414 27.1994 19.868 27.0782 19.5568 27.1994C18.9343 25.9876 17.6273 25.8058 16.5069 26.7753C15.4488 27.6841 14.5774 29.3201 14.7019 30.7137C14.8264 32.4102 16.8804 33.1979 18.2497 32.2285C18.9343 31.7437 19.4945 31.0166 19.9302 30.1684C20.2414 30.8349 20.5526 31.562 20.8638 32.2285C21.2995 33.1373 22.6689 32.3496 22.2332 31.4408C21.6108 30.1684 20.9883 28.8354 20.4282 27.5629ZM17.814 30.4107C17.4405 30.8955 16.4447 31.6225 16.1957 30.6531C16.009 29.926 16.6936 28.8959 17.0671 28.4112C17.2538 28.1689 17.565 27.8659 17.814 27.7447C17.8762 27.7447 17.8762 27.7447 17.9385 27.7447C18.0007 27.8053 18.063 27.9871 18.1252 28.1083C18.2497 28.4112 18.4986 28.593 18.7476 28.6536C18.6231 29.2595 18.1874 29.926 17.814 30.4107Z" fill="#4F2A19"/>
<path d="M84.7242 27.5629C84.5375 27.1994 84.1641 27.0782 83.8529 27.1994C83.2304 25.9876 81.9233 25.8058 80.803 26.7753C79.7449 27.6841 78.8735 29.3201 78.998 30.7137C79.1224 32.4102 81.1764 33.1979 82.5458 32.2285C83.2304 31.7437 83.7906 31.0166 84.2263 30.1684C84.5375 30.8349 84.8487 31.562 85.1599 32.2285C85.5956 33.1373 86.965 32.3496 86.5293 31.4408C85.9068 30.1684 85.2844 28.8354 84.7242 27.5629ZM82.1101 30.4107C81.7366 30.8955 80.7407 31.6225 80.4918 30.6531C80.3051 29.926 80.9897 28.8959 81.4254 28.4112C81.6121 28.1689 81.9233 27.8659 82.1723 27.7447C82.2345 27.7447 82.2968 27.7447 82.2968 27.7447C82.359 27.8053 82.4213 27.9871 82.4835 28.1083C82.608 28.4112 82.857 28.593 83.1059 28.6536C82.9192 29.2595 82.4835 29.926 82.1101 30.4107Z" fill="#4F2A19"/>
<path d="M100.16 27.5629C99.9735 27.1994 99.6001 27.0782 99.2889 27.1994C98.6665 25.9876 97.3594 25.8058 96.239 26.7753C95.1809 27.6841 94.3095 29.3201 94.434 30.7137C94.5585 32.4102 96.6125 33.1979 97.9818 32.2285C98.6665 31.7437 99.2266 31.0166 99.6623 30.1684C99.9735 30.8349 100.285 31.562 100.596 32.2285C101.032 33.1373 102.401 32.3496 101.965 31.4408C101.343 30.1684 100.783 28.8354 100.16 27.5629ZM97.6084 30.4107C97.2349 30.8955 96.239 31.6225 95.9901 30.6531C95.8033 29.926 96.488 28.8959 96.9237 28.4112C97.1104 28.1689 97.4216 27.8659 97.6706 27.7447C97.7328 27.7447 97.7951 27.7447 97.7951 27.7447C97.8573 27.8053 97.9195 27.9871 97.9818 28.1083C98.1063 28.4112 98.3552 28.593 98.6042 28.6536C98.3552 29.2595 97.9818 29.926 97.6084 30.4107Z" fill="#4F2A19"/>
<path d="M33.1255 28.0477C32.3786 27.7447 31.5695 27.7447 30.8226 27.9265C30.8226 27.563 30.8226 27.1994 30.8226 26.8359C30.8226 25.8058 29.2043 25.8058 29.2043 26.8359C29.2043 28.5324 29.2043 30.229 29.2043 31.8649C29.2043 32.2285 29.4532 32.4708 29.7022 32.592C29.7645 32.6526 29.8889 32.6526 29.9512 32.6526C31.8184 32.8344 34.1836 31.9255 34.2459 29.8654C34.3704 29.0777 33.8724 28.3506 33.1255 28.0477ZM32.6898 30.0472C32.6898 30.1078 32.6898 30.1078 32.6898 30.1078C32.6898 30.1684 32.6276 30.229 32.6276 30.2895C32.5653 30.4107 32.3786 30.5925 32.1919 30.7137C31.8184 30.956 31.3205 31.0772 30.8848 31.1378C30.8848 30.5925 30.8848 30.0472 30.8848 29.5625C31.3827 29.3807 31.9429 29.3201 32.4409 29.4413C32.5031 29.4413 32.5653 29.4413 32.6898 29.5625C32.5653 29.4413 32.8766 29.8048 32.7521 29.623C32.8143 29.6836 32.8143 29.6836 32.8143 29.6836C32.8143 29.6836 32.8143 29.6836 32.8143 29.8048C32.8143 29.8654 32.8143 29.8654 32.8143 29.926C32.7521 29.8048 32.6898 29.9866 32.6898 30.0472Z" fill="#4F2A19"/>
<path d="M27.088 26.1088C25.6565 26.1088 24.1627 26.1088 22.7311 26.1088C21.673 26.1088 21.673 27.6841 22.7311 27.6841C23.229 27.6841 23.727 27.6841 24.1627 27.6841C24.1627 29.1383 24.1627 30.5925 24.1627 32.0467C24.1627 33.0767 25.781 33.0767 25.781 32.0467C25.781 30.5925 25.781 29.1383 25.781 27.7447C26.2167 27.7447 26.6523 27.7447 27.088 27.7447C28.1462 27.6841 28.1462 26.1088 27.088 26.1088Z" fill="#4F2A19"/>
<path d="M35.8019 27.7447C35.1795 29.0777 35.3662 30.8955 36.4866 31.9255C37.4202 32.7738 38.7896 32.9556 39.9722 32.6526C40.968 32.4102 40.5323 30.8955 39.5365 31.1378C38.914 31.259 38.2294 31.1984 37.6692 30.8349C37.5447 30.7743 37.4825 30.7137 37.358 30.5925C38.6651 30.1684 39.9099 29.7442 41.1548 29.1989C41.466 29.0777 41.5905 28.6536 41.5282 28.2901C40.9058 25.6846 37.0468 25.0787 35.8019 27.7447ZM37.109 29.0777C37.109 28.8354 37.1713 28.6536 37.2335 28.4718C37.607 27.1994 39.0385 27.3812 39.7232 28.1689C38.8518 28.5324 37.9804 28.8354 37.109 29.0777Z" fill="#4F2A19"/>
<path d="M103.086 27.7447C102.463 29.0777 102.65 30.8955 103.77 31.9255C104.704 32.7738 106.073 32.9556 107.256 32.6526C108.252 32.4102 107.816 30.8955 106.82 31.1378C106.198 31.259 105.513 31.1984 104.953 30.8349C104.828 30.7743 104.766 30.7137 104.642 30.5925C105.887 30.1684 107.194 29.7442 108.438 29.1989C108.75 29.0777 108.874 28.6536 108.812 28.2901C108.19 25.6846 104.331 25.0787 103.086 27.7447ZM104.393 29.0777C104.393 28.8354 104.455 28.6536 104.517 28.4718C104.953 27.1994 106.322 27.3812 107.007 28.1689C106.198 28.5324 105.264 28.8354 104.393 29.0777Z" fill="#4F2A19"/>
<path d="M5.49005 21.2615C3.56055 21.7462 2.06673 22.8369 2.62691 24.8969C2.75139 25.4423 3.00036 26.0482 3.24933 26.5935C2.19121 26.8359 1.25757 27.3206 0.572909 28.1689C-0.85866 29.9866 0.572916 32.6526 2.87587 32.7738C5.67677 32.9555 5.73901 29.6836 5.30331 27.6841C5.73901 27.26 5.61453 26.3511 4.86763 26.3511C4.55642 25.624 4.2452 24.9575 4.05847 24.2304C3.8095 23.2004 5.05434 22.958 5.86349 22.7157C6.9216 22.5339 6.54817 21.0191 5.49005 21.2615ZM3.87175 30.5925C3.37381 32.1679 1.13309 30.6531 1.81775 29.3201C2.12896 28.6536 3.0626 28.29 3.80951 28.1083C4.05847 28.9565 4.18296 29.7442 3.87175 30.5925Z" fill="#4F2A19"/>
<path d="M58.8315 26.0482C59.9519 25.1393 60.761 23.8669 61.0722 22.5339C61.3212 21.5644 59.7651 21.1403 59.5162 22.1098C59.0805 23.7457 57.8356 25.1999 56.0929 25.624C56.0929 24.5334 56.0929 23.4428 56.0929 22.4127C56.0929 21.3827 54.4746 21.3827 54.4746 22.4127C54.4746 25.624 54.4746 28.7748 54.4746 31.9861C54.4746 33.0161 56.0929 33.0161 56.0929 31.9861C56.0929 30.4107 56.0929 28.8354 56.0929 27.26H56.1551C56.5908 27.1994 57.0265 27.0782 57.3999 26.8964C58.4581 28.7142 59.5162 30.5925 60.5743 32.4102C61.0722 33.2585 62.4416 32.4708 61.9436 31.6225C60.9477 29.7442 59.8896 27.8659 58.8315 26.0482Z" fill="#4F2A19"/>
<path d="M11.5898 26.6541C10.5316 25.8058 9.41128 25.9876 8.72661 26.7753C8.35316 26.5329 7.85523 26.5329 7.60626 27.0176C7.23281 27.8659 7.41953 28.9566 7.48177 29.8048C7.54401 31.9255 7.66851 34.1068 7.66851 36.2275C7.66851 37.2575 9.28679 37.2575 9.28679 36.2275C9.28679 34.7127 9.22456 33.2585 9.16232 31.7437C9.34904 31.9255 9.47352 32.0467 9.72249 32.2285C11.2163 33.3191 13.208 32.2285 13.3948 30.5319C13.5815 29.1383 12.7101 27.5024 11.5898 26.6541ZM11.2785 31.1378C10.8428 31.3196 10.4694 30.9561 10.2204 30.6531C9.72248 30.1078 9.41129 29.3807 9.22456 28.6536C9.41129 28.593 9.598 28.4112 9.66025 28.1689C9.90921 27.4418 10.2204 27.563 10.7806 28.1083C11.403 28.7142 11.8387 29.623 11.7765 30.4713C11.7765 30.7743 11.5275 31.0166 11.2785 31.1378Z" fill="#4F2A19"/>
<path d="M75.6991 26.6541C74.641 25.8058 73.5206 25.9876 72.836 26.7753C72.4625 26.5329 71.9646 26.5329 71.7156 27.0176C71.3422 27.8659 71.5289 28.9566 71.5911 29.8048C71.6534 31.9255 71.7779 34.1068 71.7779 36.2275C71.7779 37.2575 73.3961 37.2575 73.3961 36.2275C73.3961 34.7127 73.3339 33.2585 73.2717 31.7437C73.4584 31.9255 73.6451 32.0467 73.8318 32.2285C75.3256 33.3191 77.3174 32.2285 77.5041 30.5319C77.6908 29.1383 76.8195 27.5024 75.6991 26.6541ZM75.3879 31.1378C74.9522 31.3196 74.5787 30.9561 74.3298 30.6531C73.8318 30.1078 73.5206 29.3807 73.3339 28.6536C73.5206 28.593 73.7074 28.4112 73.7696 28.1689C74.0186 27.4418 74.3298 27.563 74.89 28.1083C75.5124 28.7142 75.9481 29.623 75.8858 30.4713C75.8858 30.7743 75.6369 31.0166 75.3879 31.1378Z" fill="#4F2A19"/>
<path d="M47.0677 27.5024C46.4453 27.26 45.6984 27.1994 44.9515 27.1994C44.9515 27.0176 44.9515 26.8359 45.0138 26.5935C46.1964 26.4723 47.3167 25.9876 47.6902 24.7758C47.9391 23.8669 47.6279 22.7763 47.0677 21.9886C46.5698 21.3221 45.6362 20.6556 44.7648 21.2009C44.2668 21.5644 44.1424 22.1098 43.9556 22.6551C43.7067 23.6245 43.5822 24.594 43.5199 25.5634C43.4577 26.1694 43.4577 26.7753 43.3955 27.3812C43.3332 27.3812 43.2087 27.4418 43.1465 27.4418C42.2129 27.6841 42.5241 28.9565 43.3332 28.9565C43.3332 29.8048 43.271 30.5319 43.6444 31.3196C44.1424 32.4102 45.4495 32.7132 46.5698 32.5314C47.6279 32.3496 48.6238 31.5014 48.8728 30.4713C49.1217 29.2595 48.2503 27.9871 47.0677 27.5024ZM45.3872 22.6551C45.325 22.6551 45.325 22.6551 45.3872 22.6551V22.6551ZM45.1382 24.9575C45.2005 24.2304 45.3872 23.5639 45.5739 22.8369C45.8229 23.1398 46.0719 23.6245 46.1341 24.0487C46.2586 24.7152 45.6984 25.0181 45.1382 25.0787C45.1382 25.0181 45.1382 24.9575 45.1382 24.9575ZM44.827 30.1684C44.7648 29.7442 44.7648 29.2595 44.827 28.7748C45.8229 28.6536 46.8188 28.7748 47.13 29.623C47.6902 31.0166 45.0138 31.8649 44.827 30.1684Z" fill="#4F2A19"/>
<path d="M91.6331 27.5024C91.0107 27.26 90.2638 27.1994 89.5169 27.1994C89.5169 27.0176 89.5169 26.8359 89.5791 26.5935C90.7617 26.4723 91.8821 25.9876 92.2555 24.7758C92.5045 23.8669 92.1933 22.7763 91.6331 21.9886C91.1352 21.3221 90.2015 20.6556 89.3302 21.2009C88.8322 21.5644 88.7077 22.1098 88.521 22.6551C88.272 23.6245 88.1476 24.594 88.0853 25.5634C88.0231 26.1694 88.0231 26.7753 87.9608 27.3812C87.8986 27.3812 87.7741 27.4418 87.7119 27.4418C86.7782 27.6841 87.0894 28.9565 87.8986 28.9565C87.8986 29.8048 87.8363 30.5319 88.2098 31.3196C88.7077 32.4102 90.0148 32.7132 91.1352 32.5314C92.1933 32.3496 93.1892 31.5014 93.4381 30.4713C93.6871 29.2595 92.8157 27.9871 91.6331 27.5024ZM89.7036 24.9575C89.7659 24.2304 89.9526 23.5639 90.1393 22.8369C90.3883 23.1398 90.6372 23.6245 90.6995 24.0487C90.824 24.7152 90.2638 25.0181 89.7036 25.0787C89.6414 25.0181 89.7036 24.9575 89.7036 24.9575ZM89.3924 30.1684C89.3302 29.7442 89.3924 29.2595 89.3924 28.7748C90.3883 28.6536 91.3842 28.7748 91.6954 29.623C92.2555 31.0166 89.5791 31.8649 89.3924 30.1684Z" fill="#4F2A19"/>
<path d="M114.165 27.5024C113.542 27.26 112.795 27.1994 112.049 27.1994C112.049 27.0176 112.048 26.8359 112.111 26.5935C113.293 26.4723 114.351 25.9876 114.787 24.7758C115.41 22.8369 112.733 20.6556 111.862 21.2009C110.928 21.8068 110.492 26.7753 110.492 27.3812C110.43 27.3812 110.306 27.4418 110.243 27.4418C109.31 27.6841 109.621 28.9565 110.43 28.9565C110.43 29.8048 110.368 30.5319 110.741 31.3196C111.239 32.4102 112.546 32.7132 113.667 32.5314C114.725 32.3496 115.721 31.5014 115.97 30.4713C116.281 29.2595 115.41 27.9871 114.165 27.5024ZM112.671 22.8369C113.169 23.261 113.916 24.9575 112.235 25.0787C112.235 25.0181 112.484 23.5034 112.671 22.8369ZM111.986 30.1684C111.924 29.7442 111.924 29.2595 111.986 28.7748C112.982 28.6536 113.978 28.7748 114.289 29.623C114.849 31.0166 112.173 31.8649 111.986 30.1684Z" fill="#4F2A19"/>
</svg>
