<svg width="48" height="48" viewBox="0 0 48 48" fill="none" xmlns="http://www.w3.org/2000/svg">
<g clip-path="url(#clip0_698_348)">
<path d="M0 24C0 10.7419 10.7419 0 24 0C37.258 0 48 10.7419 48 24C48 37.258 37.258 48 24 48C10.7419 48 0 37.258 0 24Z" fill="#F8EBD2"/>
<path d="M21.4402 31.6377C20.3229 30.9289 19.4938 31.2125 19.3857 31.2479C19.1694 31.3542 19.4938 32.1339 19.7101 32.0276C19.7101 32.0276 20.0705 31.8149 21.0438 32.382C21.26 32.4883 21.6205 31.7795 21.4402 31.6377Z" fill="#4F2A19"/>
<path d="M28.5766 31.2124C27.3151 31.0706 26.7384 31.6022 26.6663 31.6731C26.486 31.8503 26.8465 32.4173 26.9907 32.4173C27.2069 32.4173 27.6395 31.8149 28.4685 32.063C28.6848 32.1338 28.8289 31.2478 28.5766 31.2124Z" fill="#4F2A19"/>
<path d="M15.9251 23.8765C16.0693 23.841 16.9343 23.5575 16.9343 24.0183C16.9343 24.16 16.7902 24.2663 16.5739 24.2663C17.0064 25.1523 18.268 24.8334 18.304 24.0183C18.304 24.0183 18.7366 24.16 18.8087 24.16C18.9889 24.16 19.2051 23.4512 18.9889 23.3449C17.1146 22.5652 15.7088 23.0614 15.6367 23.0614C15.3844 23.1323 15.7088 23.9474 15.9251 23.8765Z" fill="#4F2A19"/>
<path d="M22.5575 24.3726C22.7377 24.3017 23.2423 24.0182 23.3865 24.3372C23.4586 24.4435 23.3865 24.6561 23.0981 24.727C23.819 25.613 24.9724 24.7625 24.7201 24.0891C24.9003 24.1245 25.0806 24.1245 25.2968 24.1954C25.5131 24.2663 25.7294 23.4157 25.5131 23.3803C23.5307 22.9196 22.3412 23.5929 22.197 23.6638C21.9807 23.7347 22.3772 24.4789 22.5575 24.3726Z" fill="#4F2A19"/>
<path d="M29.4419 24.16C29.7663 24.1245 30.3791 23.6638 30.4872 24.16C30.5233 24.3372 30.343 24.4435 30.1628 24.4435C30.8837 25.3295 32.0371 24.4789 31.7848 23.8056C32.0011 23.841 32.2173 23.8764 32.3255 23.9119C32.5417 23.9473 32.758 23.1322 32.5417 23.0968C30.5593 22.636 29.2617 23.3803 29.1896 23.3803C29.0454 23.4866 29.2977 24.16 29.4419 24.16Z" fill="#4F2A19"/>
<path d="M18.8808 26.3926C18.8087 26.7824 18.6646 28.6961 20.8993 28.767C22.7736 28.8025 23.062 27.2786 22.9178 26.3926C22.8818 26.1799 21.9807 26.3571 22.0167 26.4989C22.1609 27.2431 22.0528 27.9165 20.9354 27.9165C19.854 27.9165 19.6378 27.2077 19.818 26.4989C19.854 26.2154 18.9529 26.0736 18.8808 26.3926Z" fill="#4F2A19"/>
<path d="M24.4316 28.9797C20.8992 30.5036 17.4029 28.9088 16.4658 28.2355C16.2855 28.0937 15.7449 28.8025 15.9611 28.9443C18.9889 30.9289 22.7375 30.6808 24.5758 29.8657C24.6839 29.8303 24.6839 28.8734 24.4316 28.9797Z" fill="#4F2A19"/>
<path d="M39.967 19.9426C35.5335 16.4695 27.892 14.9101 27.892 14.9101C27.6758 14.5912 27.3514 14.095 27.063 13.847C29.9826 13.5989 36.1823 16.1151 39.0659 18.0643C39.1379 18.0997 39.7507 17.4972 39.5705 17.3555C35.2091 14.4849 28.6129 12.3939 26.1619 13.1382C26.0538 13.0673 25.9096 12.9964 25.8015 12.9255C28.2885 11.2598 33.551 12.5357 37.4799 15.1228C37.552 15.1582 38.1647 14.5557 37.9485 14.414C33.7673 11.4725 26.9909 10.1967 24.9003 12.5711C24.3236 12.3939 23.6388 12.2876 22.8098 12.2522C21.9807 11.4725 17.2229 9.98401 10.086 14.414C9.86977 14.5557 10.4825 15.1582 10.5546 15.1228C14.88 12.1104 21.5122 11.189 22.6295 13.4217C20.8634 12.3585 14.8439 13.4217 8.46403 17.3909C8.24776 17.5327 8.89657 18.1352 8.96866 18.0997C12.501 15.6544 20.575 12.642 22.4854 14.3785C22.0168 14.6621 13.6184 15.7253 8.0315 19.978C7.85128 20.1198 8.50008 20.7223 8.57217 20.6514C13.4021 16.8948 22.3412 15.3 22.7377 15.1937C21.5122 17.8162 14.123 17.6036 8.82448 21.7146C8.64425 21.8563 9.29306 22.4588 9.36515 22.3879C13.8707 18.9148 20.4669 18.4896 22.8098 16.5049C21.6924 20.6514 12.7173 20.3324 10.1581 23.1676C10.0139 23.3448 10.6988 23.841 10.8069 23.7346C11.2034 23.3448 11.708 22.9904 12.3208 22.7069C10.9511 23.6992 10.9872 27.2786 13.2219 27.6685C13.258 28.5899 13.4382 29.5113 13.7265 30.3264C13.7265 30.3619 13.9068 32.4528 14.123 33.6578C13.4382 34.0831 11.8522 35.1108 11.8162 35.1108C11.5999 35.2526 12.2127 35.8905 12.2848 35.8196C12.3568 35.7842 13.4742 35.0754 14.2672 34.5792C15.2765 37.6625 21.7284 39.1509 24.4318 36.9537C24.4318 37.1309 24.4678 37.2726 24.4678 37.4498C24.5039 37.6625 25.3689 37.5916 25.3329 37.379C25.2608 36.5638 25.2248 35.5361 25.1887 34.721C28.685 35.7487 31.929 34.1894 32.9743 32.63C32.7941 34.5792 31.2081 36.5993 27.3514 36.5639C27.0991 36.5639 27.027 37.4144 27.2793 37.4144C31.0279 37.5207 32.6499 35.7487 33.2987 34.5438L35.173 35.6424C35.2451 35.6779 35.8218 35.0399 35.6056 34.8982L33.5871 33.6932C34.0557 31.1416 34.2719 30.1492 34.2719 30.1138C34.4882 29.3696 34.6324 28.5545 34.7045 27.6685C37.8043 27.1723 36.6148 23.2739 35.5335 22.6715C36.1823 22.8841 36.759 23.3803 37.2276 23.7701C37.4438 23.9473 38.0206 23.3802 37.8764 23.2031C36.3265 21.3956 30.6314 20.4033 29.1176 19.6945C29.1176 19.2338 29.0815 18.7731 29.0094 18.2769C29.7664 18.5604 35.2451 19.8008 38.7054 22.4234C38.7775 22.4943 39.4263 21.8918 39.2461 21.75C36.3265 19.1984 29.478 17.6036 28.8652 17.32C28.7571 16.8593 28.6129 16.3986 28.4327 15.9733C31.893 16.8239 36.1102 18.1352 39.4623 20.6868C39.5344 20.6868 40.1472 20.0844 39.967 19.9426ZM12.8975 23.3448C13.0777 23.2385 13.33 23.0967 13.7986 23.4157C14.0149 23.5575 14.4835 22.8487 14.2672 22.7069C13.7986 22.4234 13.4021 22.3525 13.0777 22.3879C14.4474 21.6437 20.9715 20.6159 22.7737 18.3124C22.7016 19.1275 22.6656 19.8363 22.4493 21.3956C22.4133 21.6437 23.2783 21.7146 23.3144 21.5019C23.6388 18.4187 23.783 17.6036 23.6027 14.8747C25.0085 17.1428 24.3957 21.4665 24.3957 21.6437C24.3957 21.8918 25.2608 21.9272 25.2608 21.6791C25.3329 20.5451 25.7294 16.5049 24.0713 13.9887C26.8468 15.7961 26.4503 22.9195 25.9456 24.7978C26.9549 33.7287 22.0528 34.2603 20.1425 34.2603C18.3402 34.2603 12.9336 32.9135 14.3393 24.6206C14.3753 24.3726 13.5463 24.2308 13.4742 24.4434C13.33 25.2231 13.2219 26.0028 13.2219 26.747C11.8883 26.18 12.2127 23.7701 12.8975 23.3448ZM14.9881 33.7995C14.9521 33.5869 14.88 32.9136 14.8439 32.4883C17.1868 35.7487 21.9087 35.7133 24.3236 33.835C24.3236 34.3311 24.3597 35.0399 24.3957 35.7487C22.197 38.4776 15.3485 36.8119 14.9881 33.7995ZM35.0289 22.3879C34.5963 22.3171 34.1638 22.4234 33.8394 22.7069C33.6592 22.8487 34.2359 23.4866 34.4161 23.3448C34.5603 23.203 34.7766 23.1322 35.0289 23.2739C35.5695 23.522 36.723 26.3926 34.7766 26.747C34.7766 26.0382 34.7405 25.2586 34.6324 24.4789C34.5963 24.2308 33.7313 24.3726 33.7673 24.5852C34.9568 31.7795 30.6314 35.4298 25.1887 33.7287C25.1887 33.3388 25.1887 33.0199 25.1887 33.0199C25.6212 32.5946 26.234 31.4251 26.4863 30.5745C28.685 30.5745 30.3791 30.0429 31.8569 29.0506C31.929 28.9797 31.7849 28.0229 31.6046 28.1646C30.1989 29.1924 28.5408 29.724 26.7026 29.724C26.7747 29.3341 26.8468 28.9089 26.8828 28.519C28.3606 28.8734 30.0187 28.2709 29.6943 26.0737C29.6582 25.7193 28.685 26.0028 28.7211 26.18C29.0815 27.2786 28.3246 28.1292 26.9549 27.633C27.027 26.2154 26.8828 25.0814 26.8107 24.7624C27.6397 19.7299 27.063 15.3 24.9724 13.5989C27.7479 14.3785 28.4327 18.6313 28.1804 21.7855C28.1444 22.0335 29.0455 22.0335 29.0455 21.7855C29.0455 21.6791 29.0815 20.9349 29.0815 20.5451C30.0187 20.864 33.5871 21.7855 35.0289 22.3879Z" fill="#4F2A19"/>
</g>
<defs>
<clipPath id="clip0_698_348">
<rect width="48" height="48" fill="white"/>
</clipPath>
</defs>
</svg>
