<!-- Public brand source: https://brand.vseinstrumenti.ru/logo → public SVG folder -->
<svg width="411" height="208" viewBox="0 0 411 208" fill="none" xmlns="http://www.w3.org/2000/svg">
<path d="M0 76.4664C0 49.7079 0 36.3191 5.21195 26.1044C9.78924 17.1208 17.0975 9.81078 26.0982 5.21318C36.3106 0 49.677 0 76.4484 0H334.103C360.856 0 374.241 0 384.454 5.21318C393.435 9.79154 400.743 17.1015 405.34 26.1044C410.552 36.3191 410.552 49.7079 410.552 76.4664V131.311C410.552 158.069 410.552 171.458 405.34 181.673C400.763 190.656 393.454 197.966 384.454 202.564C374.241 207.777 360.856 207.777 334.103 207.777H76.4484C49.6963 207.777 36.3106 207.777 26.0982 202.564C17.1167 197.985 9.80847 190.675 5.21195 181.673C0 171.439 0 158.069 0 131.291V76.4471V76.4664Z" fill="#D60000"/>
<path d="M164.589 134.562C166.262 134.562 168.454 135.1 170.166 136.158C171.858 137.197 173.224 138.678 174.224 140.602C175.224 142.525 175.743 144.719 175.743 147.22C175.743 149.72 175.243 151.952 174.224 153.875C173.224 155.799 171.858 157.281 170.166 158.319C168.474 159.358 166.608 159.877 164.589 159.877C162.569 159.877 161.53 159.55 160.146 158.877C158.761 158.223 157.704 157.338 156.992 156.241H156.761V168.418H150.684V135.062H156.434V138.563H156.665C157.415 137.332 158.511 136.351 159.915 135.639C161.357 134.908 162.916 134.562 164.589 134.562ZM190.705 151.279H190.936L197.128 135.178H203.225L193.686 159.224C192.686 161.667 191.743 163.533 190.858 164.821C190.012 166.11 189.031 167.015 187.896 167.554C186.762 168.112 185.339 168.4 183.569 168.4H181.031V162.744H183.474C184.358 162.744 185.069 162.513 185.627 162.032C186.223 161.59 186.743 160.839 187.186 159.781L187.896 158.185L176.857 135.178H183.474L190.705 151.279ZM253.115 134.677C255.442 134.677 257.538 135.196 259.423 136.274C261.346 137.351 262.847 138.89 263.943 140.891C265.078 142.872 265.636 145.18 265.636 147.816V149.182H246.653C246.769 149.874 246.961 150.49 247.23 151.067C248.019 152.355 249.173 153.395 250.558 154.029C251.461 154.433 252.423 154.644 253.385 154.683H254.211C254.749 154.625 255.269 154.529 255.788 154.375C257.519 153.837 259 152.702 259.962 151.163L264.443 153.952C262.809 156.588 260.289 158.531 257.327 159.435C255.615 159.954 253.827 160.108 252.096 159.897C250.076 159.762 248.23 159.223 246.538 158.28C244.596 157.184 243.057 155.684 241.922 153.76C240.787 151.817 240.23 149.662 240.229 147.316C240.229 144.969 240.787 142.833 241.922 140.909C243.076 138.947 244.634 137.428 246.576 136.331C248.557 135.235 250.788 134.677 253.115 134.677ZM112.256 134.524C114.641 134.524 117.66 135.293 119.795 136.832C120.526 137.351 121.18 137.947 121.737 138.582L117.525 142.795C117.045 141.949 116.352 141.276 115.41 140.776C114.506 140.275 113.448 140.026 112.256 140.026C110.313 140.026 108.717 140.68 107.486 142.007C106.294 143.296 105.698 145.027 105.698 147.2C105.698 149.374 106.294 151.125 107.486 152.433C108.717 153.722 110.294 154.376 112.256 154.376C114.218 154.376 114.506 154.145 115.41 153.664C116.314 153.164 117.025 152.471 117.525 151.586L117.545 151.568L121.737 155.761C121.16 156.396 120.507 156.973 119.757 157.512C117.622 159.051 115.121 159.819 112.256 159.819C109.39 159.819 107.698 159.262 105.756 158.165C103.814 157.069 102.255 155.55 101.14 153.626C100.005 151.683 99.4473 149.528 99.4473 147.162C99.4473 144.796 100.005 142.66 101.14 140.756C102.274 138.813 103.813 137.274 105.756 136.178C107.698 135.081 109.871 134.524 112.256 134.524ZM317.869 140.66H309.888V159.455H303.849V140.66H295.925V135.178H317.869V140.66ZM221.651 148.932H221.883L229.96 135.196H236.653V159.454H230.652V143.545H230.422L223.729 154.876H219.767L213.074 143.545H212.844V159.454H206.785V135.196H213.67L221.651 148.932ZM275.885 144.545H286.463V135.196H292.502V159.454H286.463V149.97H275.885V159.454H269.808V135.196H275.885V144.545ZM327.794 143.083H332.756C335.833 143.083 338.199 143.853 339.834 145.392C341.507 146.911 342.334 148.855 342.334 151.24C342.334 153.625 341.507 155.645 339.834 157.184C338.199 158.684 335.833 159.454 332.756 159.454H321.717V135.196H327.794V143.083ZM351.123 159.454H345.084V135.196H351.123V159.454ZM49.5225 151.74H49.7529L59.7539 135.081H67.0234V159.339H60.9844V142.718H60.7539L50.7529 159.339H43.4834V135.081H49.5225V151.74ZM78.6602 144.41H89.2373V135.062H95.2764V159.319H89.2373V149.835H78.6602V159.319H72.5635V135.062H78.6602V144.41ZM146.317 140.525H138.336V159.319H132.297V140.525H124.373V135.042H146.317V140.525ZM327.698 154.529H332.468V154.549C333.641 154.549 334.506 154.26 335.103 153.702C335.737 153.106 336.045 152.279 336.045 151.24C336.045 150.202 335.737 149.451 335.103 148.874C334.506 148.278 333.622 147.97 332.468 147.97H327.698V154.529ZM163.107 139.909C161.165 139.909 159.608 140.564 158.492 141.853C157.358 143.141 156.8 144.911 156.8 147.181C156.8 149.451 157.357 151.24 158.492 152.568C159.627 153.856 161.165 154.51 163.107 154.51C165.05 154.51 166.608 153.856 167.724 152.568C168.897 151.279 169.474 149.489 169.474 147.181C169.474 144.873 168.897 143.103 167.724 141.853C166.589 140.564 165.05 139.909 163.107 139.909ZM253.153 139.89C251.538 139.89 250.153 140.332 249.019 141.217L248.999 141.198C247.865 142.083 247.095 143.295 246.691 144.834H259.365C259 143.334 258.25 142.141 257.115 141.256C256 140.352 254.769 139.89 253.153 139.89ZM175.686 61.7501C180.743 61.7501 185.321 62.9236 189.437 65.2511C193.61 67.5788 196.88 70.9266 199.284 75.3126C201.746 79.6216 202.977 84.6616 202.977 90.4132V93.3947H161.512C161.781 94.8951 162.224 96.2612 162.781 97.4923C164.474 100.32 166.993 102.609 170.031 103.975C171.974 104.86 174.051 105.322 176.147 105.399C176.801 105.399 177.417 105.379 178.013 105.321V105.36C179.166 105.264 180.321 105.072 181.455 104.726C185.225 103.571 188.456 101.09 190.533 97.7423L200.303 103.802C196.764 109.515 191.245 113.766 184.802 115.729C181.013 116.883 177.032 117.191 173.147 116.691C168.878 116.364 164.935 115.21 161.319 113.209C157.088 110.805 153.722 107.514 151.261 103.34C148.799 99.108 147.568 94.4145 147.568 89.2784C147.568 84.1423 148.799 79.4869 151.261 75.3126C153.78 71.0614 157.165 67.7524 161.415 65.3478C165.723 62.9432 170.628 61.7502 175.686 61.7501ZM126.895 61.6339C132.106 61.634 138.664 63.3076 143.318 66.674C144.915 67.8282 146.319 69.0982 147.53 70.464L138.376 79.6202C137.357 77.7735 135.818 76.2919 133.76 75.1954C131.779 74.0991 129.49 73.5607 126.875 73.5607C122.625 73.5607 119.182 75.004 116.509 77.8702C113.913 80.6788 112.604 84.4493 112.604 89.1622C112.605 93.8751 113.893 97.684 116.509 100.569C119.182 103.378 122.625 104.782 126.875 104.782C131.125 104.782 131.76 104.263 133.76 103.243C135.741 102.147 137.28 100.646 138.376 98.7228H138.414L147.53 107.841C146.3 109.226 144.857 110.495 143.223 111.65C138.569 115.016 133.126 116.689 126.895 116.69C120.663 116.69 116.97 115.497 112.72 113.093C108.469 110.688 105.123 107.417 102.661 103.224C100.2 98.9918 98.9688 94.2982 98.9688 89.1622C98.9688 84.026 100.199 79.3698 102.661 75.1954C105.123 70.9443 108.47 67.6361 112.72 65.2316C116.97 62.827 121.683 61.6339 126.895 61.6339ZM323.737 84.9874C326.103 70.4446 339.797 60.5569 354.355 62.923C368.895 65.2892 378.78 79.0051 376.415 93.548C374.049 108.091 360.356 117.979 345.797 115.612C331.257 113.246 321.372 99.5497 323.737 84.9874ZM63.6006 43.2247C68.3124 43.2247 72.3898 43.9942 75.8516 45.5138C79.371 47.0335 82.0827 49.1882 83.9482 51.9581C85.8907 54.6513 86.8525 57.7485 86.8525 61.2111C86.8525 64.6737 85.9867 67.6166 84.2559 70.2521C82.525 72.8106 80.2363 74.8308 77.4092 76.2736V76.7736C82.8135 77.4661 86.9877 79.4473 89.9688 82.6984C92.9497 85.8917 94.4307 89.932 94.4307 94.8566C94.4306 99.7811 93.3535 102.59 91.2188 105.764C89.1417 108.957 86.1026 111.439 82.083 113.247C78.0635 115.055 73.332 115.94 67.8701 115.94H43.4453V43.2247H63.6006ZM57.7539 103.57H67.2354C71.1779 103.57 74.2171 102.782 76.3711 101.186C78.5251 99.5313 79.583 97.0685 79.583 93.8175C79.583 90.5667 78.4673 88.2393 76.2559 86.6427C74.1019 84.9884 71.0246 84.1418 67.0244 84.1417H57.7539V103.57ZM343.547 78.8126C342.412 78.8126 341.335 79.0626 340.354 79.5626C339.374 80.0435 338.604 80.6978 338.085 81.5441H337.912V79.2169H333.084V102.648H338.2V94.2023H338.373C338.873 94.9524 339.585 95.5486 340.508 95.9718C341.45 96.4142 342.45 96.6261 343.527 96.6261C344.604 96.6261 346.182 96.2607 347.374 95.549C348.586 94.8372 349.528 93.7792 350.239 92.4327C350.951 91.0669 351.316 89.5082 351.316 87.7384C351.316 85.9687 350.951 84.3915 350.239 83.045C349.528 81.6985 348.586 80.6406 347.374 79.9288C346.201 79.1978 344.912 78.8517 343.527 78.8517L343.547 78.8126ZM358.895 95.3947L358.702 95.8947C358.414 96.5486 358.086 97.0491 357.683 97.3761C357.298 97.7031 356.797 97.8761 356.201 97.8761H354.221V102.648H356.394C357.701 102.648 358.778 102.435 359.605 102.031C360.432 101.608 361.183 100.897 361.837 99.8966C362.51 98.9155 363.259 97.4531 364.048 95.5294L370.722 79.2365H365.664L361.529 89.8165H361.355L356.548 79.2365H351.027L358.895 95.3947ZM342.2 83.257C343.393 83.257 344.316 83.6609 345.027 84.4689C345.72 85.2576 346.085 86.3349 346.085 87.7198C346.085 89.1047 345.739 90.201 345.027 91.0089C344.316 91.7976 343.393 92.1827 342.2 92.1827C341.008 92.1827 340.008 91.7783 339.277 91.0089C338.566 90.2203 338.22 89.1239 338.22 87.7198C338.22 86.3156 338.566 85.2185 339.277 84.4298C340.008 83.6413 341.008 83.257 342.2 83.257ZM175.782 73.1769C172.224 73.1769 169.205 74.1196 166.743 76.0431V76.0626C164.262 77.9863 162.589 80.6217 161.704 83.9689H189.321C188.494 80.6794 186.86 78.082 184.398 76.1583C182.014 74.177 179.34 73.1769 175.782 73.1769ZM57.7734 72.8302H61.9473C65.2743 72.8301 67.7936 72.0411 69.5244 70.4445C71.2552 68.7901 72.1211 66.6355 72.1211 64.0001C72.121 61.365 71.2551 59.3263 69.5244 57.8644C67.7935 56.3447 65.3315 55.5743 62.1582 55.5743H57.7734V72.8302Z" fill="white"/>
</svg>
